<?xml version="1.0" encoding="utf-8"?>
<!-- Generator: Adobe Illustrator 19.0.0, SVG Export Plug-In . SVG Version: 6.00 Build 0)  -->
<svg version="1.1" id="Layer_1" xmlns="http://www.w3.org/2000/svg" xmlns:xlink="http://www.w3.org/1999/xlink" x="0px" y="0px"
	 viewBox="0 0 38.064 38.909" style="enable-background:new 0 0 38.064 38.909;" xml:space="preserve">
<style type="text/css">
	.st0{fill:#ED1C24;}
</style>
<g id="XMLID_1_">
	<path id="XMLID_7_" d="M12.364,31.459c-0.534,0.367-0.8,0.617-0.8,0.75c-0.034,0.1,0.033,0.167,0.2,0.2
		c-0.133,0.134-0.6,0.534-1.4,1.2c-0.067,0.067-0.1,0.167-0.1,0.3c-0.267,0.3-0.583,0.634-0.95,1c-0.167,0.167-0.467,0.45-0.9,0.85
		c-0.367,0.233-0.85,0.583-1.45,1.05l-0.05,0.1l0.25-0.15c-0.033,0.033-0.067,0.083-0.1,0.15c0,0.066,0.033,0.133,0.1,0.2
		c-0.2,0.1-0.417,0.133-0.65,0.1c-0.034,0.066-0.067,0.133-0.1,0.2c0,0.066,0.033,0.116,0.1,0.15h-0.15
		c-0.1-0.067-0.184-0.1-0.25-0.1c-0.167,0-0.25,0.066-0.25,0.2c-0.034,0.1-0.034,0.233,0,0.4c-0.167-0.1-0.384-0.15-0.65-0.15
		c-0.134,0.1-0.217,0.15-0.25,0.15c-0.1-0.034-0.25-0.092-0.45-0.175c-0.2-0.083-0.35-0.125-0.45-0.125
		c-0.167-0.167-0.367-0.434-0.6-0.8c-0.034-0.1-0.1-0.15-0.2-0.15s-0.15,0.066-0.15,0.2c-0.034-0.067-0.117-0.184-0.25-0.35
		c-0.1,0.133-0.217,0.183-0.35,0.15c-0.367,0.033-0.6,0.05-0.7,0.05c-0.067,0-0.084-0.018-0.05-0.05c0.066-0.067,0.066-0.1,0-0.1
		c-0.367-0.033-0.667-0.35-0.9-0.95c-0.733-1.9-1-3.85-0.8-5.85c0.2-1.7,0.65-3.95,1.35-6.75c0.566-2.466,1.15-4.466,1.75-6
		c0.2-0.5,0.533-1,1-1.5c0.133-0.033,0.333-0.116,0.6-0.25c0.066-0.033,0.233-0.15,0.5-0.35c0.133,0.2,0.35,0.534,0.65,1
		c0.533-0.333,0.933-0.483,1.2-0.45h0.3c0,0.033-0.017,0.083-0.05,0.15l-0.05,0.1c0.066,0.067,0.116,0.1,0.15,0.1
		c0.1,0,0.266-0.133,0.5-0.4c0.1-0.033,0.233-0.1,0.4-0.2c-0.333,0.434-0.517,0.767-0.55,1v0.3l0.15,0.15
		c0.1,0,0.216-0.05,0.35-0.15c0.033,0.233,0.05,0.417,0.05,0.55c-0.034,0.134-0.1,0.2-0.2,0.2h-0.2l0.05,0.4
		c0.1-0.1,0.2-0.15,0.3-0.15c0,0.034,0.016,0.1,0.05,0.2c-0.233,0.133-0.367,0.283-0.4,0.45c0.033-0.066,0.033-0.116,0-0.15
		l-0.6,3.05c-0.934,3.2-1.517,5.95-1.75,8.25c-0.1,1.067-0.134,2.1-0.1,3.1c0.033,0.034,0.083,0.067,0.15,0.1l4.1-2.65
		c-0.3,0.6-0.833,1.2-1.6,1.8c-0.367,0.267-1.033,0.75-2,1.45c0.133-0.1,0.933-0.633,2.4-1.6l-2.65,2.1
		c0.033,0.034,0.117,0.017,0.25-0.05l-0.35,0.25c0,0.034,0.05,0.05,0.15,0.05c0.133,0.034,1.8-1.083,5-3.35
		c0.033,0.067,0.116,0.117,0.25,0.15c0.1-0.033,0.3-0.1,0.6-0.2c-0.334,0.233-0.5,0.417-0.5,0.55c-0.034,0.233,0.083,0.367,0.35,0.4
		C11.797,31.559,12.031,31.526,12.364,31.459z"/>
	<polygon id="XMLID_15_" points="1.864,36.509 1.864,36.409 1.514,36.359 1.514,36.459 	"/>
	<polygon id="XMLID_13_" points="2.614,35.309 2.664,35.159 2.114,35.109 2.064,35.259 	"/>
	<polygon id="XMLID_14_" points="2.514,36.709 2.564,36.509 2.414,36.509 2.364,36.709 	"/>
	<path id="XMLID_12_" d="M2.914,34.809l-0.45-0.05l-0.05,0.2C2.547,34.926,2.714,34.876,2.914,34.809z"/>
	<polygon id="XMLID_8_" points="3.464,38.909 2.514,38.709 2.564,38.559 3.464,38.759 	"/>
	<path id="XMLID_5_" class="st0" d="M13.414,8.659c-0.067-0.066-0.167-0.183-0.3-0.35c-0.034,0-0.067,0.017-0.1,0.05
		c0.033,0.1,0.05,0.233,0.05,0.4c-0.034,0.267-0.134,0.567-0.3,0.9c0.033-0.233,0.017-0.633-0.05-1.2
		c-0.067-0.033-0.117-0.033-0.15,0c0,0.067,0,0.184,0,0.35c-0.268,0.234-0.384,0.5-0.35,0.8c0.066,0.067,0.183,0.184,0.35,0.35
		c0.066-0.066,0.1-0.116,0.1-0.15l-0.45,1.15c-0.4,0.367-1.083,0.9-2.05,1.6c0,0.067,0.042,0.134,0.125,0.2
		c0.083,0.067,0.125,0.133,0.125,0.2c0,0.034-0.033,0.084-0.1,0.15c-0.3-0.267-0.518-0.4-0.65-0.4l-0.85,0.4
		c0.2-0.267,0.316-0.45,0.35-0.55l-0.35-0.05l-0.05,0.5c0-0.066-0.05-0.1-0.15-0.1c-0.067,0-0.1,0.017-0.1,0.05
		c0,0.1,0.033,0.2,0.1,0.3c-0.067-0.066-0.167-0.225-0.3-0.475c-0.134-0.25-0.234-0.375-0.3-0.375c-0.3-0.033-0.517-0.017-0.65,0.05
		c-0.1-0.5-0.3-0.7-0.6-0.6c0.2-0.2,0.316-0.35,0.35-0.45c-0.1-0.1-0.167-0.15-0.2-0.15l-0.25,0.2c-0.233,0.2-0.45,0.284-0.65,0.25
		c-0.034,0-0.05-0.016-0.05-0.05c0-0.033-0.034-0.05-0.1-0.05c-0.034,0-0.108,0.033-0.225,0.1c-0.117,0.067-0.192,0.1-0.225,0.1
		c-0.367-0.033-0.5-0.616-0.4-1.75l0.2-0.15c0.133-0.3,0.183-0.6,0.15-0.9c0.2-0.667,0.767-1.8,1.7-3.4c0.732-0.3,1.4-0.55,2-0.75
		c-0.1-0.133-0.234-0.2-0.4-0.2c-0.067,0-0.15,0.034-0.25,0.1c-0.7,0.1-1.325,0.483-1.875,1.15c-0.55,0.667-0.875,1.367-0.975,2.1
		c0.133-0.4,0.266-0.95,0.4-1.65c-1,0.767-1.5,1.667-1.5,2.7c0.066,0.134,0.116,0.3,0.15,0.5c0-0.066-0.034-0.1-0.1-0.1
		c-0.067,0-0.167,0.018-0.3,0.05l-0.05-0.4c0.133-1.267,0.867-2.383,2.2-3.35l0.65-0.5c0-0.2-0.067-0.5-0.2-0.9
		c0.3-0.2,0.533-0.3,0.7-0.3c0.267,0.034,0.7,0.15,1.3,0.35l1.35,0.45c0,0.067,0.1,0.267,0.3,0.6c0.167-0.033,0.3-0.033,0.4,0
		c0.033,0.1,0.066,0.15,0.1,0.15c0.066,0,0.116-0.017,0.15-0.05c0.033-0.033,0.066-0.05,0.1-0.05c0.066,0,0.125,0.05,0.175,0.15
		c0.05,0.1,0.108,0.15,0.175,0.15c0.066,0,0.15-0.016,0.25-0.05c0.1-0.033,0.183-0.05,0.25-0.05c0,0.134,0.058,0.217,0.175,0.25
		c0.116,0.034,0.158,0.075,0.125,0.125c-0.034,0.05-0.017,0.075,0.05,0.075c0.367,0.034,0.617,0.034,0.75,0l0.1,0.15
		c-0.034,0.034-0.067,0.067-0.1,0.1c0,0.067,0.05,0.184,0.15,0.35l-0.65,0.3c0,0.067,0.066,0.117,0.2,0.15
		c-0.067,0.167-0.1,0.434-0.1,0.8c0.2,0,0.433,0.133,0.7,0.4L13.414,8.659z"/>
	<polygon id="XMLID_6_" points="4.964,9.659 4.864,9.609 4.814,9.409 4.914,9.409 	"/>
	<polygon id="XMLID_11_" points="6.114,33.309 6.014,33.159 5.764,33.309 5.814,33.409 	"/>
	<polygon id="XMLID_9_" points="6.264,6.209 6.164,6.209 6.014,6.359 6.114,6.409 	"/>
	<polygon id="XMLID_10_" points="10.464,32.059 10.464,32.009 10.264,32.059 10.264,32.159 	"/>
	<polygon id="XMLID_4_" points="12.614,9.559 12.514,9.709 12.414,9.659 12.464,9.459 	"/>
	<path id="XMLID_16_" d="M13.214,30.709c-0.067,0.367-0.217,0.534-0.45,0.5c-0.067,0-0.317-0.232-0.75-0.7
		c0.033-0.2-0.1-0.433-0.4-0.7c-0.033-0.2-0.05-0.316-0.05-0.35c0.1,0,0.2,0.067,0.3,0.2l0.4-0.3c0.166-0.133,0.283-0.2,0.35-0.2
		C12.98,29.226,13.18,29.742,13.214,30.709z M12.564,5.809c0,0.067-0.025,0.15-0.075,0.25c-0.05,0.1-0.075,0.167-0.075,0.2
		c-0.167-0.033-0.333-0.033-0.5,0c-0.134-0.133-0.184-0.216-0.15-0.25c0-0.066,0.05-0.191,0.15-0.375
		c0.1-0.183,0.15-0.308,0.15-0.375c0.133,0,0.333,0.034,0.6,0.1L12.564,5.809z M38.014,14.259l-0.95,0.45
		c-0.034,0.134,0.083,0.284,0.35,0.45c0,0.067-0.067,0.167-0.2,0.3c-0.6,0.067-1.467,0.117-2.6,0.15c-0.2,0-0.383,0.067-0.55,0.2
		c0.267,0.067,0.55,0.134,0.85,0.2c0.3,0.034,0.6,0.05,0.9,0.05c-0.367,0.067-0.917,0.15-1.65,0.25
		c-0.333,0.134-0.817,0.267-1.45,0.4c0.033,0.067,0.083,0.084,0.15,0.05c0.566-0.066,0.883-0.1,0.95-0.1
		c0.233,0,1.033-0.033,2.4-0.1l0.2,0.1l-0.35,0.25l-6.3,0.7c-2.3,0.233-4.384,0.383-6.25,0.45l-0.1,0.1
		c-0.034,0.034-0.384,1.017-1.05,2.95c-0.434,1.267-0.733,2.383-0.9,3.35c-0.5,3.268-0.284,5.884,0.65,7.85
		c1.733-1.033,2.55-1.55,2.45-1.55c0.133,0,0.35,0.175,0.65,0.525c0.3,0.35,0.517,0.542,0.65,0.575c0.066,0,0.1-0.017,0.1-0.05
		c0-0.033,0.033-0.033,0.1,0c0.066,0.034,0.167,0.134,0.3,0.3c0.2-0.167,1.267-0.733,3.2-1.7c-1.934,2.134-4.2,3.684-6.8,4.65
		c-0.134,0.067-0.2,0.134-0.2,0.2l0.1,0.15c0.667-0.033,2.333-0.833,5-2.4l-2.6,1.95c-1.667,1.2-2.767,1.75-3.3,1.65
		c-0.1,0-0.375-0.2-0.825-0.6s-0.692-0.65-0.725-0.75c-0.333,0.1-0.517,0.284-0.55,0.55l-0.6-0.1c-0.333-0.066-1.1-1.016-2.3-2.85
		c-0.467-0.733-0.7-2.183-0.7-4.35c0.033-1.566,0.167-3.1,0.4-4.6c0.066-0.433,0.5-2.267,1.3-5.5c-0.834,0.134-1.45,0.167-1.85,0.1
		c-0.234-0.033-0.617-0.167-1.15-0.4c-0.534-0.233-0.95-0.367-1.25-0.4l-1.35-0.2c-0.234,0-0.3,0-0.2,0c0-0.1,0.05-0.216,0.15-0.35
		c0.3-0.1,0.566-0.133,0.8-0.1c0.133,0.034,0.35,0.083,0.65,0.15c0.3,0.067,0.517,0.117,0.65,0.15l0.15-0.1
		c-0.067-0.1-0.283-0.25-0.65-0.45c0.167,0,0.45-0.016,0.85-0.05c-0.967-0.966-1.534-1.466-1.7-1.5c-0.1,0-0.417,0.034-0.95,0.1
		c0.033-0.1,0.116-0.133,0.25-0.1c0.033-0.033,0-0.1-0.1-0.2c0.267-0.266,0.533-0.533,0.8-0.8c0.7,0,1.066-0.117,1.1-0.35
		c0.066-0.3,0.017-0.45-0.15-0.45c-0.267-0.033-0.483-0.15-0.65-0.35c0.3-0.033,0.75-0.117,1.35-0.25l-0.15-0.2
		c0.2-0.1,0.517-0.267,0.95-0.5c0.066-0.1,0.05-0.15-0.05-0.15c0.2,0.034,0.316,0.1,0.35,0.2c0.233-0.066,0.383-0.266,0.45-0.6
		c0.233-0.1,0.566-0.183,1-0.25c0.633-0.066,1.583-0.183,2.85-0.35c0.133-0.267,0.533-1.433,1.2-3.5l0.1-0.7
		c0.033-0.133,0.183-0.466,0.45-1l0.05-0.5c0.1-0.266,0.283-0.683,0.55-1.25c0.033-0.133,0.1-0.333,0.2-0.6
		c0.267-0.3,0.45-0.583,0.55-0.85c0.4,0.267,0.85,0.583,1.35,0.95c0.2-0.167,0.483-0.4,0.85-0.7c0,0.133,0.133,0.517,0.4,1.15
		c0.133-0.3,0.35-0.8,0.65-1.5l0.25,0.1c0,0.267,0.116,0.684,0.35,1.25c0.066,0.467,0.1,0.967,0.1,1.5c0,0.833,0.033,1.217,0.1,1.15
		l-0.1,0.45h-0.15c-0.2,0.834-0.534,2.084-1,3.75c0.033,0.067,0.083,0.15,0.15,0.25c0.066,0,0.15-0.05,0.25-0.15
		c-0.034,0.134,0.017,0.217,0.15,0.25c0.233,0.034,0.617,0,1.15-0.1c0.466,0.034,1.216,0.05,2.25,0.05c1.3,0,2.05-0.017,2.25-0.05
		c-0.2,0.367-0.45,0.534-0.75,0.5l-0.75-0.1l-0.15,0.05c0.1,0.134,0.25,0.217,0.45,0.25c0.133,0,0.35-0.033,0.65-0.1
		c0.3-0.066,0.517-0.083,0.65-0.05c0.066,0,0.083,0.034,0.05,0.1c-0.034,0.067,0,0.1,0.1,0.1c-0.234-0.033,0.416-0.133,1.95-0.3
		c0.233,0,1.017,0,2.35,0c-0.1,0-0.325,0.075-0.675,0.225c-0.35,0.15-0.575,0.208-0.675,0.175c-0.733-0.1-1.383-0.05-1.95,0.15
		c0.1,0.134,0.2,0.2,0.3,0.2c1.566,0.267,2.2,0.333,1.9,0.2c0.1,0.133,0.367,0.483,0.8,1.05c0,0.1,0.016,0.2,0.05,0.3
		c0.267,0.134,0.35,0.184,0.25,0.15c0.233,0.033,0.7,0.033,1.4,0l0.1,0.1L38.014,14.259z M12.714,16.709l-0.7-0.1
		c0.1-0.033,0.2-0.083,0.3-0.15C12.447,16.626,12.581,16.709,12.714,16.709z M21.964,2.509c-0.2,0.133-0.317,0.2-0.35,0.2l-0.6-0.1
		c-0.034-0.033-0.075-0.1-0.125-0.2c-0.05-0.1-0.092-0.167-0.125-0.2c-0.2,0.034-0.367,0.159-0.5,0.375
		c-0.134,0.217-0.167,0.393-0.1,0.525c0.233,0.767,0.183,1.3-0.15,1.6c-0.3,0.2-0.734,0.484-1.3,0.85
		c-1.034,0.067-1.517,0.117-1.45,0.15c-0.2-0.033-0.35-0.158-0.45-0.375c-0.1-0.216-0.1-0.425,0-0.625
		c-0.1-0.133-0.233-0.35-0.4-0.65c-0.034-0.333-0.083-0.8-0.15-1.4c-0.234,0.2-0.417,0.284-0.55,0.25
		c-0.833-0.133-1.184-0.566-1.05-1.3c0.066-0.367,0.3-0.717,0.7-1.05c0.4-0.333,0.783-0.466,1.15-0.4c0.066,0,0.15,0.034,0.25,0.1
		c0.1,0.067,0.183,0.117,0.25,0.15c0.066,0,0.283-0.075,0.65-0.225c0.366-0.15,0.583-0.208,0.65-0.175
		c0.267,0.034,0.75,0.317,1.45,0.85c0.133,0.2,0.383,0.5,0.75,0.9c0.1-0.2,0.266-0.433,0.5-0.7c0.2-0.167,0.366-0.233,0.5-0.2
		c0.232,0.033,0.433,0.25,0.6,0.65L21.964,2.509z M17.264,7.059l-0.9-0.35l0.05-0.1l0.85,0.3V7.059z M18.014,9.309
		c-0.067,0.333-0.25,0.467-0.55,0.4c-0.534-0.066-0.883-0.333-1.05-0.8c0.167-0.366,0.366-0.533,0.6-0.5
		C17.747,8.509,18.081,8.809,18.014,9.309z M20.064,3.559l-0.1-0.15l-0.1,0.05l0.1,0.15L20.064,3.559z M21.714,4.609l-1.85,5.45
		l1.5-6C21.43,4.092,21.547,4.276,21.714,4.609z M22.764,27.809c-0.167,0-0.284-0.083-0.35-0.25c-0.1-0.366-0.117-0.75-0.05-1.15
		c-0.033,0.267,0.267-0.9,0.9-3.5c-0.1,0.467-0.175,1.259-0.225,2.375C22.989,26.401,22.897,27.242,22.764,27.809z M26.564,9.659
		l-0.2,0.8h-0.2l0.25-0.85L26.564,9.659z M27.114,3.559h-0.15l0.05-0.2h0.15L27.114,3.559z M30.164,3.759
		c-0.034,0.333-0.3,0.617-0.8,0.85c-0.1-0.133-0.15-0.233-0.15-0.3c0.033-0.133,0.158-0.316,0.375-0.55
		c0.216-0.233,0.392-0.367,0.525-0.4C30.18,3.459,30.197,3.592,30.164,3.759z M36.414,3.809c-0.3,0.2-0.534,0.284-0.7,0.25l-0.1-0.1
		l0.05-0.3c0.066-0.066,0.3-0.183,0.7-0.35l0.15,0.1L36.414,3.809z"/>
</g>
<g id="XMLID_55_">
</g>
<g id="XMLID_56_">
</g>
<g id="XMLID_57_">
</g>
<g id="XMLID_58_">
</g>
<g id="XMLID_59_">
</g>
<g id="XMLID_60_">
</g>
<g id="XMLID_61_">
</g>
<g id="XMLID_62_">
</g>
<g id="XMLID_63_">
</g>
<g id="XMLID_64_">
</g>
<g id="XMLID_65_">
</g>
<g id="XMLID_66_">
</g>
<g id="XMLID_67_">
</g>
<g id="XMLID_68_">
</g>
<g id="XMLID_69_">
</g>
</svg>
